<svg width="113" height="117" xmlns="http://www.w3.org/2000/svg" xmlns:xlink="http://www.w3.org/1999/xlink" xml:space="preserve" overflow="hidden"><defs><clipPath id="clip0"><rect x="49" y="157" width="113" height="117"/></clipPath></defs><g clip-path="url(#clip0)" transform="translate(-49 -157)"><path d="M74.0578 381.714 62.3952 370.039C60.418 368.059 60.418 364.85 62.3952 362.872L93.3826 331.852C96.7635 328.468 102.245 328.468 105.627 331.852L137.131 363.402C139.109 365.384 139.107 368.593 137.129 370.573L125.514 382.185C124.265 383.436 122.225 383.436 120.961 382.185L103.982 365.19C101.545 362.752 97.5702 362.736 95.1335 365.19L78.6112 381.714C77.363 382.98 75.3215 382.98 74.0578 381.714" fill="#4E2FEA" fill-rule="evenodd" transform="matrix(1 0 0 1.0085 5.95238 -175.115)"/><path d="M153.507 395.029 105.683 442.792C102.294 446.173 96.8012 446.173 93.4131 442.792L45.5887 395.029C42.2007 391.647 42.2007 386.178 45.5887 382.794L53.1195 375.276C55.054 373.346 58.1892 373.346 60.1237 375.276L71.8966 387.03C74.3383 389.469 78.3215 389.469 80.778 387.03L97.3199 370.5C98.5707 369.252 100.616 369.252 101.882 370.5L118.897 387.487C120.118 388.722 121.721 389.331 123.338 389.331 124.94 389.331 126.558 388.722 127.779 387.487L139.491 375.795C141.424 373.864 144.561 373.864 146.495 375.795L153.507 382.794C156.895 386.178 156.895 391.647 153.507 395.029" fill="#0C7FF2" fill-rule="evenodd" transform="matrix(1 0 0 1.0085 5.95238 -175.115)"/></g></svg>