<svg width="2598" height="424" xmlns="http://www.w3.org/2000/svg" xmlns:xlink="http://www.w3.org/1999/xlink" xml:space="preserve" overflow="hidden"><defs><clipPath id="clip0"><rect x="168" y="541" width="389" height="400"/></clipPath><clipPath id="clip1"><rect x="168" y="541" width="389" height="400"/></clipPath><clipPath id="clip2"><rect x="168" y="541" width="389" height="400"/></clipPath><clipPath id="clip3"><rect x="168" y="541" width="389" height="400"/></clipPath></defs><g transform="matrix(1 0 0 1 0 -529)"><g clip-path="url(#clip0)"><g clip-path="url(#clip1)"><g clip-path="url(#clip2)"><g clip-path="url(#clip3)"><path d="M254.942 1314.04 214.794 1273.85C207.987 1267.04 207.987 1255.99 214.794 1249.18L321.467 1142.39C333.106 1130.74 351.977 1130.74 363.617 1142.39L472.069 1251C478.878 1257.83 478.873 1268.87 472.062 1275.69L432.079 1315.66C427.779 1319.97 420.757 1319.97 416.404 1315.66L357.955 1257.16C349.567 1248.76 335.883 1248.71 327.495 1257.16L270.617 1314.04C266.32 1318.4 259.292 1318.4 254.942 1314.04" fill="#4E2FEA" fill-rule="evenodd" transform="matrix(1 0 0 1.00157 19.8097 -594.435)"/><path d="M528.444 1359.88 363.81 1524.3C352.144 1535.94 333.236 1535.94 321.572 1524.3L156.938 1359.88C145.275 1348.24 145.275 1329.41 156.938 1317.76L182.863 1291.88C189.522 1285.23 200.315 1285.23 206.975 1291.88L247.502 1332.34C255.908 1340.74 269.62 1340.74 278.076 1332.34L335.021 1275.44C339.327 1271.14 346.368 1271.14 350.727 1275.44L409.299 1333.91C413.503 1338.17 419.021 1340.26 424.588 1340.26 430.102 1340.26 435.674 1338.17 439.875 1333.91L480.194 1293.67C486.849 1287.02 497.646 1287.02 504.306 1293.67L528.444 1317.76C540.106 1329.41 540.106 1348.24 528.444 1359.88" fill="#0C7FF2" fill-rule="evenodd" transform="matrix(1 0 0 1.00157 19.8097 -594.435)"/></g></g></g></g><path d="M810.128 551C825.888 551 836.422 555.927 841.729 565.779 847.037 575.632 851.403 588.629 854.829 604.769L898.8 817.468 947.389 619.771C951.499 604.02 955.237 591.897 958.603 583.4 961.969 574.903 967.678 567.379 975.731 560.828 983.783 554.276 994.623 551 1008.25 551 1022.22 551 1033.1 554.418 1040.87 561.255 1048.65 568.091 1053.98 575.38 1056.86 583.123 1059.74 590.866 1063.46 603.082 1068.02 619.771L1117.09 817.468 1161.01 605.114C1163.21 594.592 1165.45 585.858 1167.74 578.911 1170.02 571.966 1174.13 565.577 1180.06 559.746 1185.99 553.916 1194.51 551 1205.62 551 1216.81 551 1226.34 554.739 1234.2 562.217 1242.07 569.695 1246 578.999 1246 590.129 1246 597.408 1244.1 608.83 1240.29 624.396L1178.87 872.926C1174.67 889.729 1171.1 902.29 1168.15 910.608 1165.19 918.926 1159.97 926.404 1152.48 933.042 1144.99 939.681 1134.51 943 1121.03 943 1108.33 943 1098.14 939.817 1090.46 933.451 1082.79 927.086 1077.49 920.037 1074.58 912.307 1071.67 904.576 1067.97 892.74 1063.48 876.8L1008.3 657.279 952.167 877.727C948.032 892.493 944.47 903.818 941.48 911.703 938.49 919.588 933.137 926.775 925.423 933.265 917.709 939.755 907.472 943 894.713 943 884.459 943 875.975 941.06 869.261 937.182 862.547 933.303 857.188 927.951 853.184 921.125 849.181 914.3 845.938 905.952 843.456 896.084 840.974 886.215 838.837 878.495 837.046 872.926L775.62 624.396C771.873 609.753 770 598.33 770 590.129 770 579.146 773.87 569.879 781.611 562.328 789.352 554.776 798.858 551 810.128 551Z" fill="#2C52EB" fill-rule="evenodd"/><path d="M1404.89 653C1435.76 653 1460.33 656.771 1478.59 664.312 1496.85 671.854 1509.77 683.823 1517.34 700.222 1524.9 716.62 1528.69 737.897 1528.69 764.054 1528.69 780.207 1528.65 793.035 1528.56 802.537 1528.48 812.039 1528.35 823.668 1528.18 837.423 1528.18 853.342 1530.32 868.301 1534.59 882.301 1538.86 896.301 1541 905.518 1541 909.955 1541 918.534 1537.15 926.186 1529.45 932.912 1521.76 939.637 1513 943 1503.18 943 1494.68 943 1486.69 939.409 1479.21 932.229 1471.74 925.048 1465.02 915.77 1459.07 904.394 1445.2 916.851 1430.27 926.4 1414.27 933.04 1398.27 939.68 1380.22 943 1360.12 943 1341.63 943 1325.33 939.311 1311.22 931.934 1297.11 924.557 1286.21 914.518 1278.52 901.816 1270.84 889.114 1267 875.288 1267 860.336 1267 840.247 1273.36 823.127 1286.07 808.975 1298.78 794.824 1315.65 785.458 1336.67 780.88 1341.03 779.871 1351.88 777.596 1369.22 774.056 1386.55 770.515 1401.57 767.231 1414.26 764.202 1426.96 761.173 1439.13 757.98 1450.78 754.623 1449.99 740.354 1446.79 729.551 1441.17 722.213 1435.55 714.874 1423.45 711.205 1404.87 711.205 1388.44 711.205 1376.21 713.419 1368.16 717.846 1360.11 722.273 1353.03 729.189 1346.92 738.593 1340.81 747.997 1336.17 754.586 1333 758.359 1329.83 762.131 1323.11 764.018 1312.86 764.018 1303.77 764.018 1295.91 761.1 1289.28 755.266 1282.65 749.431 1279.33 741.845 1279.33 732.507 1279.33 719.27 1283.91 706.55 1293.07 694.346 1302.22 682.143 1316.23 672.201 1335.09 664.52 1353.95 656.84 1377.22 653 1404.89 653ZM1450.78 804.795C1445.4 808.328 1432.94 812.192 1413.42 816.385 1393.89 820.579 1380.74 823.565 1373.95 825.344 1367.17 827.122 1360.89 830.44 1355.12 835.296 1349.34 840.151 1346.46 846.858 1346.46 855.416 1346.46 864.478 1349.84 872.153 1356.61 878.44 1363.38 884.728 1372.44 887.872 1383.79 887.872 1396.58 887.872 1408.28 885.109 1418.9 879.585 1429.52 874.06 1437.61 866.413 1443.17 856.646 1448.24 848.109 1450.78 832.396 1450.78 809.506L1450.78 804.795Z" fill="#262E37" fill-rule="evenodd"/><path d="M1992.96 653C2020.8 653 2044.76 658.915 2064.85 670.745 2084.94 682.574 2099.99 697.866 2110 716.62 2120 735.374 2125 754.437 2125 773.809 2125 793.107 2119.38 805.66 2108.13 811.468 2096.88 817.276 2081.82 820.179 2062.95 820.179L1933.87 820.179C1933.99 831.6 1936.92 842.901 1942.66 854.082 1948.39 865.262 1955.88 873.603 1965.11 879.106 1974.34 884.608 1984.63 887.359 1995.98 887.359 2003.81 887.359 2010.87 886.463 2017.16 884.673 2023.45 882.882 2029.55 880.079 2035.46 876.263 2041.37 872.448 2047.23 867.993 2053.04 862.898 2058.86 857.803 2065.69 851.558 2073.53 844.162 2077.98 840.337 2084.11 838.425 2091.91 838.425 2100.29 838.425 2107.23 840.853 2112.73 845.71 2118.22 850.567 2120.97 857.227 2120.97 865.688 2120.97 872.79 2118.34 880.828 2113.08 889.801 2107.82 898.774 2100.02 907.271 2089.7 915.294 2079.37 923.316 2066.49 929.939 2051.06 935.163 2035.63 940.388 2017.94 943 1997.99 943 1952.38 943 1916.81 929.922 1891.28 903.765 1865.76 877.609 1853 842.27 1853 797.747 1853 776.791 1856.12 757.371 1862.35 739.486 1868.59 721.602 1877.78 706.162 1889.93 693.166 1902.08 680.171 1916.98 670.227 1934.62 663.336 1952.26 656.446 1971.71 653 1992.96 653ZM1990.69 711.205C1975.16 711.205 1962.36 716.607 1952.28 727.411 1942.21 738.215 1936.08 752.728 1933.89 770.949L2048 770.949C2046.41 752.434 2040.58 737.848 2030.5 727.191 2020.42 716.534 2007.15 711.205 1990.69 711.205Z" fill="#262E37" fill-rule="evenodd"/><path d="M1599.72 654C1613.13 654 1622.3 657.748 1627.23 665.243 1632.16 672.739 1637.13 683.888 1642.14 698.692L1693.52 852.384 1749.72 690.085C1753.84 678.665 1758.54 669.796 1763.81 663.477 1769.09 657.159 1777.16 654 1788.04 654 1798.26 654 1806.98 657.438 1814.19 664.315 1821.4 671.192 1825 679.171 1825 688.253 1825 691.552 1824.38 695.477 1823.14 700.028 1821.9 704.58 1820.57 708.609 1819.14 712.115 1817.72 715.622 1815.11 720.674 1811.32 727.274L1748.09 887.313C1745.62 893.568 1743.04 899.967 1740.37 906.509 1737.69 913.051 1734.35 919.147 1730.35 924.797 1726.34 930.448 1721.32 934.894 1715.28 938.136 1709.24 941.379 1701.94 943 1693.37 943 1682.37 943 1673.6 940.504 1667.07 935.512 1660.55 930.521 1655.74 925.094 1652.65 919.232 1649.57 913.37 1645.07 903.44 1639.17 889.444L1573.09 726.85C1571.66 723.061 1570.05 718.911 1568.25 714.399 1566.46 709.888 1564.97 705.362 1563.78 700.822 1562.59 696.283 1562 692.26 1562 688.753 1562 683.084 1563.67 677.562 1567.01 672.187 1570.35 666.811 1574.93 662.436 1580.74 659.062 1586.56 655.687 1592.89 654 1599.72 654Z" fill="#262E37" fill-rule="evenodd"/><path d="M2282.82 654C2300.88 654 2317.32 655.927 2332.14 659.782 2346.97 663.636 2359.38 668.834 2369.38 675.374 2379.38 681.915 2387.09 689.321 2392.52 697.591 2397.94 705.86 2400.66 714.059 2400.66 722.186 2400.66 731.5 2397.5 739.163 2391.17 745.175 2384.85 751.186 2376.06 754.192 2364.81 754.192 2356.49 754.192 2349.55 751.937 2343.99 747.428 2338.42 742.919 2332.34 736.51 2325.73 728.202 2320.92 721.992 2315.33 717.074 2308.98 713.449 2302.63 709.824 2293.9 708.012 2282.79 708.012 2271.46 708.012 2262.31 710.246 2255.35 714.715 2248.39 719.184 2244.91 724.456 2244.91 730.53 2244.91 736.18 2247.43 740.925 2252.46 744.767 2257.5 748.607 2264.93 751.977 2274.76 754.874 2284.59 757.771 2298.5 761.403 2316.5 765.771 2338.25 771.072 2356.19 777.487 2370.31 785.017 2384.43 792.547 2395.24 801.591 2402.74 812.149 2410.25 822.706 2414 834.78 2414 848.368 2414 868.249 2409.08 885.367 2399.24 899.721 2389.39 914.076 2375.05 924.878 2356.21 932.127 2337.37 939.376 2314.67 943 2288.1 943 2262.68 943 2240.79 939.077 2222.43 931.233 2204.07 923.388 2190.41 913.434 2181.44 901.371 2172.48 889.308 2168 876.984 2168 864.398 2168 855.437 2171.18 847.787 2177.53 841.45 2183.89 835.114 2191.89 831.945 2201.55 831.945 2210.18 831.945 2216.79 834.036 2221.37 838.217 2225.96 842.398 2230.37 848.469 2234.6 856.431 2240.73 866.772 2248.27 874.698 2257.23 880.209 2266.2 885.721 2278.66 888.476 2294.61 888.476 2307.3 888.476 2317.46 885.83 2325.08 880.537 2332.7 875.244 2336.51 869.547 2336.51 863.447 2336.51 853.349 2332.47 845.855 2324.39 840.965 2316.3 836.074 2301.2 830.976 2279.08 825.67 2256.95 820.182 2238.15 814.077 2222.69 807.355 2207.23 800.633 2194.75 791.633 2185.26 780.355 2175.77 769.078 2171.02 755.057 2171.02 738.293 2171.02 723.481 2175.4 709.555 2184.16 696.515 2192.92 683.474 2205.71 673.128 2222.53 665.477 2239.34 657.826 2259.44 654 2282.82 654Z" fill="#262E37" fill-rule="evenodd"/></g></svg>